<?xml version="1.0" standalone="no"?>
<!DOCTYPE svg PUBLIC "-//W3C//DTD SVG 20010904//EN"
 "http://www.w3.org/TR/2001/REC-SVG-20010904/DTD/svg10.dtd">
<svg version="1.0" xmlns="http://www.w3.org/2000/svg"
 width="128.000000pt" height="128.000000pt" viewBox="0 0 128.000000 128.000000"
 preserveAspectRatio="xMidYMid meet">

<g transform="translate(0.000000,128.000000) scale(0.100000,-0.100000)"
fill="#000000" stroke="none">
<path d="M0 640 l0 -640 640 0 640 0 0 640 0 640 -640 0 -640 0 0 -640z m548
270 c-7 -11 -19 -20 -26 -20 -7 0 -10 5 -7 10 3 6 -2 10 -12 10 -15 0 -30 -27
-67 -115 -46 -109 -50 -115 -77 -115 -16 0 -29 2 -29 4 0 2 20 51 45 109 25
58 45 108 45 111 0 3 -11 6 -24 6 -14 0 -28 5 -31 10 -4 6 30 10 94 10 99 0
101 0 89 -20z m70 -156 c4 -30 -66 -170 -100 -199 -24 -20 -40 -25 -89 -25
-68 0 -67 -12 -5 124 37 81 43 106 26 106 -5 0 -10 4 -10 10 0 5 36 9 88 7 79
-2 87 -4 90 -23z m96 -90 c9 -3 16 -12 16 -19 0 -19 -41 -30 -50 -15 -12 20
-26 5 -59 -66 -39 -84 -40 -109 -4 -86 17 11 33 59 26 78 -5 15 -3 15 26 -1
34 -17 35 -28 4 -87 -16 -34 -5 -36 32 -6 25 19 27 19 24 3 -2 -10 -23 -28
-46 -39 -23 -12 -45 -29 -48 -39 -10 -28 -51 -50 -81 -43 -41 11 -30 55 21 83
l40 23 -31 0 c-54 0 -61 21 -29 95 42 101 60 118 127 124 9 0 23 -2 32 -5z m6
-262 c0 -5 -7 -17 -16 -28 -14 -18 -15 -18 -10 6 4 19 2 17 -9 -7 -20 -44 -35
-42 -21 2 8 26 16 35 33 35 13 0 23 -4 23 -8z m73 -27 c-16 -33 -43 -48 -43
-24 0 8 -5 7 -15 -1 -19 -16 -30 -7 -21 16 4 11 13 14 27 11 13 -4 27 2 37 14
26 30 33 22 15 -16z m155 -3 c-7 -18 -16 -32 -20 -32 -11 0 -10 7 8 41 20 39
27 33 12 -9z m-42 -30 c-4 -3 -12 0 -19 8 -10 10 -9 11 2 5 9 -5 12 -4 7 3 -4
7 -4 18 1 25 5 8 9 5 11 -11 2 -13 1 -26 -2 -30z m-85 29 c-7 -5 -10 -14 -7
-20 4 -6 0 -11 -8 -11 -9 0 -16 4 -16 8 0 12 22 32 35 32 5 0 4 -4 -4 -9z m52
-11 c-3 -11 -14 -20 -24 -20 -22 0 -24 11 -7 28 19 19 37 14 31 -8z"/>
<path d="M521 738 c-5 -13 -25 -58 -45 -100 -24 -53 -31 -78 -22 -78 7 0 20 8
29 18 20 22 77 146 77 167 0 23 -29 18 -39 -7z"/>
<path d="M570 395 c-7 -9 -11 -18 -8 -20 3 -3 11 1 18 10 7 9 11 18 8 20 -3 3
-11 -1 -18 -10z"/>
</g>
</svg>
